<svg width="47" height="60" viewBox="0 0 47 60" fill="none" xmlns="http://www.w3.org/2000/svg">
<ellipse cx="23.5001" cy="20.7353" rx="23.5" ry="20.7353" fill="black"/>
<path d="M25.1388 17.8586C23.898 17.6319 22.549 17.6419 21.3304 17.9004C13.0517 18.7734 10.3636 27.3972 11.1226 33.9727C11.4519 36.8155 16.4314 36.8454 16.0989 33.9727C15.8227 31.5764 15.9409 27.96 17.3562 25.3897C17.3562 28.5139 17.3562 31.6381 17.3562 34.7612C17.3562 34.8716 17.3684 34.975 17.3739 35.0814C17.3706 35.1321 17.3573 35.1749 17.3573 35.2266C17.3573 42.6632 17.343 50.0968 17.0016 57.5274C16.8502 60.8306 22.5413 60.8177 22.6915 57.5274C22.9589 51.7036 23.0263 45.8769 23.0418 40.0491C23.3114 40.065 23.5809 40.065 23.8505 40.0511C23.8671 45.8789 23.9323 51.7056 24.1975 57.5274C24.3488 60.8177 30.0399 60.8306 29.8875 57.5274C29.5461 50.0968 29.5339 42.6632 29.5339 35.2266C29.5339 34.9959 29.4996 34.7861 29.4477 34.5843C29.44 31.3557 29.303 28.1241 29.345 24.8975C31.0398 27.4798 31.1945 31.4183 30.9006 33.9708C30.5669 36.8414 35.5476 36.8126 35.8769 33.9708C36.6536 27.259 33.8362 18.4115 25.1388 17.8586Z" fill="white"/>
<path d="M23.5377 17.7864C26.2879 17.7864 28.5173 15.78 28.5173 13.3049C28.5173 10.8299 26.2879 8.82349 23.5377 8.82349C20.7876 8.82349 18.5582 10.8299 18.5582 13.3049C18.5582 15.78 20.7876 17.7864 23.5377 17.7864Z" fill="white"/>
</svg>
