<svg width="1200" height="285" viewBox="0 0 1200 285" fill="none" xmlns="http://www.w3.org/2000/svg">
<rect y="16.7646" width="1200" height="268.235" fill="black"/>
<ellipse cx="599.5" cy="20.7353" rx="23.5" ry="20.7353" fill="black"/>
<path d="M601.139 17.8586C599.898 17.6319 598.549 17.6419 597.33 17.9004C589.052 18.7734 586.364 27.3972 587.123 33.9727C587.452 36.8155 592.431 36.8454 592.099 33.9727C591.823 31.5764 591.941 27.96 593.356 25.3897C593.356 28.5139 593.356 31.6381 593.356 34.7612C593.356 34.8716 593.368 34.975 593.374 35.0814C593.371 35.1321 593.357 35.1749 593.357 35.2266C593.357 42.6632 593.343 50.0968 593.002 57.5274C592.85 60.8306 598.541 60.8177 598.692 57.5274C598.959 51.7036 599.026 45.8769 599.042 40.0491C599.311 40.065 599.581 40.065 599.851 40.0511C599.867 45.8789 599.932 51.7056 600.197 57.5274C600.349 60.8177 606.04 60.8306 605.887 57.5274C605.546 50.0968 605.534 42.6632 605.534 35.2266C605.534 34.9959 605.5 34.7861 605.448 34.5843C605.44 31.3557 605.303 28.1241 605.345 24.8975C607.04 27.4798 607.194 31.4183 606.901 33.9708C606.567 36.8414 611.548 36.8126 611.877 33.9708C612.654 27.259 609.836 18.4115 601.139 17.8586Z" fill="white"/>
<path d="M599.538 17.7864C602.288 17.7864 604.517 15.78 604.517 13.3049C604.517 10.8299 602.288 8.82349 599.538 8.82349C596.788 8.82349 594.558 10.8299 594.558 13.3049C594.558 15.78 596.788 17.7864 599.538 17.7864Z" fill="white"/>
</svg>
