<svg width="52" height="52" viewBox="0 0 52 52" fill="none" xmlns="http://www.w3.org/2000/svg">
<path d="M26.0001 0C11.6638 0 0.00012207 11.6637 0.00012207 26C0.00012207 40.3353 11.6638 52 26.0001 52C40.3354 52 52.0001 40.3353 52.0001 26C52.0001 11.6637 40.3375 0 26.0001 0ZM32.4661 26.9153H28.2361C28.2361 33.6735 28.2361 41.9921 28.2361 41.9921H21.9681C21.9681 41.9921 21.9681 33.7541 21.9681 26.9153H18.9885V21.5867H21.9681V18.1401C21.9681 15.6716 23.141 11.8145 28.2937 11.8145L32.9384 11.8323V17.0048C32.9384 17.0048 30.116 17.0048 29.5672 17.0048C29.0184 17.0048 28.2382 17.2792 28.2382 18.4564V21.5878H33.0138L32.4661 26.9153Z" fill="url(#paint0_linear)"/>
<defs>
<linearGradient id="paint0_linear" x1="26.0001" y1="0" x2="26.0001" y2="52" gradientUnits="userSpaceOnUse">
<stop stop-color="#FF7F7F"/>
<stop offset="1" stop-color="#DDCD13"/>
</linearGradient>
</defs>
</svg>
