<svg width="52" height="52" viewBox="0 0 52 52" fill="none" xmlns="http://www.w3.org/2000/svg">
<path d="M22.5167 30.3084C22.3481 30.1964 22.1753 30.0749 21.9941 29.9523C21.4673 29.7911 20.908 29.7073 20.3352 29.7H20.2661C17.6332 29.7 15.325 31.2929 15.325 33.111C15.325 35.0903 17.3033 36.6372 19.8272 36.6372C23.1566 36.6372 24.8438 35.4873 24.8438 33.2251C24.8438 33.0115 24.8186 32.7895 24.7652 32.5664C24.54 31.6888 23.7347 31.141 22.5167 30.3084Z" fill="url(#paint0_linear)"/>
<path d="M20.6515 23.409C20.6536 23.409 20.6536 23.409 20.6536 23.409C21.283 23.409 21.814 23.1608 22.2256 22.6895C22.8707 21.9543 23.1566 20.7478 22.987 19.467C22.6885 17.1776 21.0516 15.2715 19.3434 15.2223L19.2754 15.2202C18.6711 15.2202 18.1317 15.4695 17.7222 15.9387C17.0865 16.6644 16.8174 17.8144 16.9839 19.0931C17.2834 21.3804 18.9549 23.3566 20.6274 23.409H20.6515Z" fill="url(#paint1_linear)"/>
<path d="M26 0C11.6637 0 0 11.6637 0 26C0 40.3353 11.6637 52 26 52C40.3353 52 52 40.3353 52 26C52 11.6637 40.3374 0 26 0ZM23.0027 38.6607C22.0203 38.9445 20.9573 39.088 19.8419 39.088C18.5999 39.088 17.4059 38.9455 16.2927 38.6638C14.1384 38.1203 12.5465 37.0897 11.8029 35.7618C11.4825 35.1879 11.3201 34.5763 11.3201 33.9426C11.3201 33.2902 11.4762 32.6283 11.7841 31.9727C12.9644 29.4571 16.0759 27.7647 19.5225 27.7647C19.5571 27.7647 19.5895 27.7647 19.621 27.7647C19.3413 27.2714 19.2062 26.7603 19.2062 26.2231C19.2062 25.956 19.2418 25.6837 19.3131 25.4062C15.6978 25.3245 12.9927 22.677 12.9927 19.1863C12.9927 16.7221 14.9626 14.3206 17.7798 13.3508C18.6229 13.0597 19.4827 12.911 20.3279 12.911H28.059C28.3218 12.911 28.5554 13.0817 28.6371 13.332C28.7188 13.5812 28.6287 13.8556 28.4161 14.0096L26.687 15.2611C26.5833 15.3344 26.4587 15.3742 26.3299 15.3742H25.711C26.51 16.3325 26.9782 17.6992 26.9782 19.2335C26.9782 20.9269 26.1215 22.5282 24.5621 23.7483C23.3577 24.6867 23.3106 24.9454 23.3106 25.4805C23.3252 25.7748 24.1641 26.7352 25.0899 27.3898C27.2463 28.9146 28.0485 30.4112 28.0485 32.9079C28.0475 35.5167 26.067 37.7705 23.0027 38.6607ZM40.462 25.3999C40.462 25.735 40.1887 26.0073 39.8546 26.0073H35.4612V30.4028C35.4612 30.7379 35.1879 31.0102 34.8559 31.0102H33.6044C33.2671 31.0102 32.9948 30.7379 32.9948 30.4028V26.0073H28.6046C28.2695 26.0073 27.9972 25.7371 27.9972 25.3999V24.1505C27.9972 23.8154 28.2695 23.541 28.6046 23.541H32.9948V19.1497C32.9948 18.8135 33.2671 18.5423 33.6044 18.5423H34.8559C35.1879 18.5423 35.4612 18.8135 35.4612 19.1497V23.541H39.8535C40.1876 23.541 40.461 23.8133 40.461 24.1484V25.3999H40.462Z" fill="url(#paint2_linear)"/>
<defs>
<linearGradient id="paint0_linear" x1="20.0844" y1="29.7" x2="20.0844" y2="36.6372" gradientUnits="userSpaceOnUse">
<stop stop-color="#FF7F7F"/>
<stop offset="1" stop-color="#DDCD13"/>
</linearGradient>
<linearGradient id="paint1_linear" x1="19.9853" y1="15.2202" x2="19.9853" y2="23.409" gradientUnits="userSpaceOnUse">
<stop stop-color="#FF7F7F"/>
<stop offset="1" stop-color="#DDCD13"/>
</linearGradient>
<linearGradient id="paint2_linear" x1="26" y1="0" x2="26" y2="52" gradientUnits="userSpaceOnUse">
<stop stop-color="#FF7F7F"/>
<stop offset="1" stop-color="#DDCD13"/>
</linearGradient>
</defs>
</svg>
