<svg width="52" height="52" viewBox="0 0 52 52" fill="none" xmlns="http://www.w3.org/2000/svg">
<path d="M25.999 31.205C28.8675 31.205 31.2061 28.8706 31.2061 25.9999C31.2061 24.8668 30.8353 23.8205 30.2216 22.966C29.2759 21.6547 27.7385 20.7949 26.0021 20.7949C24.2646 20.7949 22.7283 21.6537 21.7805 22.9649C21.1647 23.8195 20.7971 24.8657 20.796 25.9989C20.7929 28.8695 23.1294 31.205 25.999 31.205Z" fill="url(#paint0_linear)"/>
<path d="M37.3652 19.6324V15.2694V14.6201L36.7127 14.6222L32.3518 14.6358L32.3686 19.6492L37.3652 19.6324Z" fill="url(#paint1_linear)"/>
<path d="M26 0C11.6637 0 0 11.6637 0 26C0 40.3353 11.6637 52 26 52C40.3353 52 52 40.3353 52 26C52 11.6637 40.3374 0 26 0ZM40.7867 22.966V35.0727C40.7867 38.2261 38.2229 40.7888 35.0716 40.7888H16.9284C13.776 40.7888 11.2133 38.2261 11.2133 35.0727V22.966V16.9294C11.2133 13.7771 13.776 11.2144 16.9284 11.2144H35.0706C38.2229 11.2144 40.7867 13.7771 40.7867 16.9294V22.966Z" fill="url(#paint2_linear)"/>
<path d="M34.0883 25.9998C34.0883 30.4581 30.4604 34.088 26 34.088C21.5396 34.088 17.9129 30.4581 17.9129 25.9998C17.9129 24.9274 18.1265 23.9021 18.5077 22.9658H14.0934V35.0725C14.0934 36.6371 15.3638 37.9044 16.9274 37.9044H35.0696C36.6311 37.9044 37.9035 36.6371 37.9035 35.0725V22.9658H33.4871C33.8715 23.9021 34.0883 24.9274 34.0883 25.9998Z" fill="url(#paint3_linear)"/>
<defs>
<linearGradient id="paint0_linear" x1="26.001" y1="20.7949" x2="26.001" y2="31.205" gradientUnits="userSpaceOnUse">
<stop stop-color="#FF7F7F"/>
<stop offset="1" stop-color="#DDCD13"/>
</linearGradient>
<linearGradient id="paint1_linear" x1="34.8585" y1="14.6201" x2="34.8585" y2="19.6492" gradientUnits="userSpaceOnUse">
<stop stop-color="#FF7F7F"/>
<stop offset="1" stop-color="#DDCD13"/>
</linearGradient>
<linearGradient id="paint2_linear" x1="26" y1="0" x2="26" y2="52" gradientUnits="userSpaceOnUse">
<stop stop-color="#FF7F7F"/>
<stop offset="1" stop-color="#DDCD13"/>
</linearGradient>
<linearGradient id="paint3_linear" x1="25.9985" y1="22.9658" x2="25.9985" y2="37.9044" gradientUnits="userSpaceOnUse">
<stop stop-color="#FF7F7F"/>
<stop offset="1" stop-color="#DDCD13"/>
</linearGradient>
</defs>
</svg>
