<svg width="41" height="31" viewBox="0 0 41 31" fill="none" xmlns="http://www.w3.org/2000/svg">
<path d="M3.93518 9.71951C4.45383 10.0777 6.01721 11.1417 8.62541 12.9109C11.2337 14.6801 13.2319 16.0423 14.6199 16.9976C14.7724 17.1023 15.0964 17.3299 15.592 17.6808C16.0877 18.0319 16.4996 18.3157 16.8274 18.532C17.1554 18.7484 17.5519 18.9911 18.0174 19.2597C18.4826 19.5282 18.9212 19.7301 19.333 19.8637C19.7449 19.9985 20.1262 20.0653 20.4769 20.0653H20.5H20.5231C20.8738 20.0653 21.2552 19.9985 21.6672 19.8637C22.0788 19.7301 22.5178 19.5279 22.9826 19.2597C23.4478 18.9908 23.8443 18.7483 24.1723 18.532C24.5003 18.3157 24.9119 18.0319 25.4078 17.6808C25.9034 17.3297 26.2277 17.1023 26.3802 16.9976C27.7832 16.0423 31.3528 13.616 37.0876 9.71907C38.201 8.95791 39.1313 8.03957 39.8786 6.96453C40.6264 5.88997 40.9999 4.7627 40.9999 3.58334C40.9999 2.5978 40.6374 1.75417 39.9129 1.05252C39.1883 0.350709 38.3303 0 37.3391 0H3.66055C2.48615 0 1.58238 0.388126 0.949373 1.16438C0.316459 1.94078 0 2.91125 0 4.07571C0 5.01629 0.419595 6.03556 1.25838 7.13287C2.0971 8.23026 2.98965 9.09254 3.93518 9.71951Z" fill="white"/>
<path d="M38.7117 11.5833C33.7092 14.8975 29.9107 17.4732 27.3181 19.3098C26.4487 19.9366 25.7435 20.426 25.2018 20.7766C24.6602 21.1275 23.9398 21.4857 23.0397 21.8514C22.1399 22.2176 21.3014 22.4001 20.5234 22.4001H20.5H20.477C19.6992 22.4001 18.8601 22.2176 17.9603 21.8514C17.0605 21.4857 16.3397 21.1275 15.7983 20.7766C15.257 20.426 14.5514 19.9366 13.6821 19.3098C11.6229 17.8319 7.83254 15.256 2.31105 11.5833C1.44142 11.0164 0.671143 10.3665 0 9.63501V27.4164C0 28.4024 0.35829 29.2455 1.07527 29.9473C1.79209 30.6492 2.65404 31.0001 3.66079 31.0001H37.3394C38.346 31.0001 39.2079 30.6492 39.9247 29.9473C40.6419 29.2453 41 28.4025 41 27.4164V9.63501C40.344 10.3513 39.5816 11.0012 38.7117 11.5833Z" fill="white"/>
</svg>
