<svg width="29" height="42" viewBox="0 0 29 42" fill="none" xmlns="http://www.w3.org/2000/svg">
<path d="M28.3149 10.4534C28.165 9.89309 27.8608 9.29606 27.6357 8.77335C24.942 2.31467 19.0564 0 14.3041 0C7.94228 0 0.935468 4.25612 0 13.029V14.8213C0 14.8961 0.0258384 15.568 0.0625407 15.9042C0.586943 20.0851 3.89358 24.5285 6.3631 28.7094C9.01996 33.1889 11.7768 37.5954 14.5082 42C16.1924 39.1256 17.8705 36.2134 19.5163 33.4134C19.9649 32.5917 20.4856 31.7705 20.9346 30.9862C21.2339 30.464 21.8057 29.9417 22.0669 29.4558C24.7236 24.6028 29 19.7123 29 14.896V12.9175C29.0001 12.3953 28.3514 10.566 28.3149 10.4534ZM14.4206 19.4509C12.5505 19.4509 10.5036 18.518 9.49327 15.9415C9.34274 15.5314 9.35488 14.7095 9.35488 14.6342V13.4769C9.35488 10.1924 12.1501 8.69875 14.5819 8.69875C17.5756 8.69875 19.891 11.0884 19.891 14.0753C19.891 17.0621 17.4143 19.4509 14.4206 19.4509Z" fill="white"/>
</svg>
