<svg width="84" height="72" viewBox="0 0 84 72" fill="none" xmlns="http://www.w3.org/2000/svg">
<path d="M57.5848 5.88661C58.8502 4.66136 60.6174 4.39966 62.5613 5.14925C63.8244 5.63631 64.7577 6.38492 64.8599 6.46884C65.4464 6.94939 65.5341 7.80961 65.0563 8.39673L61.3063 13.0054C61.0706 13.2953 60.7264 13.4779 60.3527 13.5113C60.311 13.5152 60.2695 13.5169 60.2281 13.5169C59.8972 13.5169 59.5758 13.3992 59.323 13.1831C59.0449 12.9451 56.6045 10.79 56.5317 8.43649C56.5015 7.46432 56.8658 6.58258 57.5848 5.88661ZM60.1441 10.052L61.917 7.87349C61.1411 7.50294 60.1551 7.24449 59.5205 7.85883C59.3338 8.0397 59.2987 8.18603 59.3033 8.35013C59.3171 8.83459 59.6889 9.47548 60.1441 10.052Z" fill="white"/>
<path d="M72.4151 11.9299C73.3006 11.9299 74.0211 12.6443 74.0211 13.5224C74.021 14.4002 73.3006 15.1146 72.4151 15.1146C71.5295 15.1146 70.8093 14.4002 70.8093 13.5224C70.8093 12.6444 71.5297 11.9299 72.4151 11.9299Z" fill="white"/>
<path d="M3.33734 48.8677C3.54832 48.2271 3.78851 47.5859 4.04117 46.9199C4.81144 44.8882 5.60812 42.7878 5.78892 40.0063C6.19415 33.7682 9.21175 28.5727 14.5155 24.9811C18.1905 22.4926 21.7395 21.5954 22.3492 21.454C26.1147 20.1882 29.1827 20.5687 32.4024 20.9694C36.2331 21.4463 40.1901 21.9381 46.3314 19.9874C46.9818 17.2738 48.1779 14.8823 49.8866 12.8926C49.4809 12.8924 49.0957 12.7156 48.8324 12.4088C48.5689 12.1018 48.4542 11.6957 48.5185 11.2975C48.5343 11.1992 48.9256 8.86278 50.5481 6.35819C52.0572 4.02846 54.9539 1.08797 60.1848 0.308731C66.023 -0.561274 70.9371 0.421821 74.0218 3.07649C76.2237 4.97114 77.4362 7.66361 77.5506 10.8896C78.983 12.3021 80.578 13.9375 81.8692 15.4223C81.8927 15.4474 81.9155 15.4734 81.9373 15.5007C82.6953 16.3764 83.3444 17.1968 83.7833 17.8821C84.0493 18.2976 84.0721 18.8223 83.8425 19.2588C83.7891 19.3607 83.1005 20.6545 81.9895 22.1187C81.9729 22.1421 81.9557 22.1651 81.9373 22.1876C80.9109 23.5289 79.5353 24.999 77.969 25.8216C77.9685 25.8218 77.9678 25.8219 77.9673 25.8223C77.9202 25.8469 77.8712 25.8689 77.8205 25.8883C77.8072 25.8935 77.7936 25.8971 77.7801 25.9018C77.7529 25.9114 77.7261 25.9215 77.6981 25.9293L74.4887 26.8308C74.7005 27.457 74.935 28.2592 75.1333 29.2042C75.2897 29.9487 74.809 30.6783 74.0592 30.8335C73.9636 30.8534 73.8684 30.8629 73.7746 30.8629C73.1318 30.8627 72.5552 30.4164 72.4187 29.7667C71.9997 27.7718 71.4022 26.5349 71.398 26.5259C71.2163 26.1592 71.2081 25.7312 71.3756 25.358C71.5431 24.9847 71.8688 24.7044 72.2649 24.5933L74.6467 23.9242C73.2601 22.7332 70.9988 21.0983 67.9484 19.9023C66.1216 19.186 64.9677 17.7667 64.6995 15.9059C64.3161 13.2456 65.8149 9.94348 68.2635 8.05469C69.9532 6.75123 71.7781 6.40121 73.4018 7.06818C73.5522 7.1301 73.6906 7.21761 73.8105 7.32727C73.8333 7.34797 73.8964 7.40582 73.988 7.49039C73.5624 6.59333 72.9682 5.81377 72.2061 5.15837C69.7434 3.03901 65.62 2.28437 60.5959 3.03265C54.8505 3.88864 52.5636 7.86567 51.7141 10.1387H53.3885C53.9861 10.1387 54.5161 10.5187 54.7043 11.082C54.8925 11.6452 54.6964 12.2649 54.2174 12.6197C50.8508 15.1135 48.9589 18.7408 48.5938 23.4013C48.4788 24.8714 48.5407 26.223 48.6542 27.3082C49.5324 26.6434 50.3312 26.2349 50.4851 26.1584C50.9944 25.9052 51.6075 25.9875 52.0311 26.3652C52.4549 26.7429 52.603 27.3397 52.4047 27.8696C52.045 28.831 52.077 30.0916 52.4997 31.6162C52.7029 32.3493 52.2691 33.1076 51.531 33.3095C51.408 33.343 51.2841 33.3592 51.1622 33.3592C50.5539 33.3592 49.9956 32.9581 49.8263 32.3471C49.6286 31.6343 49.4976 30.9519 49.4328 30.3022C49.2483 30.5029 49.0893 30.7112 48.9736 30.922C48.7028 31.415 48.1582 31.6944 47.5967 31.6304C47.0352 31.5657 46.5695 31.1687 46.4197 30.6276C46.3829 30.4948 45.5224 27.3283 45.822 23.2826C45.8289 23.1898 45.8392 23.0985 45.8473 23.0063C39.8524 24.6715 35.734 24.1601 32.0574 23.7026C28.9338 23.3134 26.3707 22.9955 23.1956 24.0762C23.1778 24.0824 23.1603 24.0891 23.1421 24.0946C22.6212 24.2742 22.0844 24.49 21.5249 24.7507C13.1564 28.6523 14.9136 40.2009 15.6515 43.6473C15.8635 44.6378 15.9544 45.594 15.9291 46.5707C15.9097 47.319 15.293 47.9123 14.5438 47.9123C14.5318 47.9123 14.5195 47.9122 14.5075 47.9118C13.742 47.8921 13.1374 47.2602 13.1571 46.4998C13.1766 45.7423 13.1056 44.9964 12.9394 44.2203C12.4805 42.0768 11.8148 37.8298 12.5112 33.468C12.7663 31.8703 13.1889 30.4047 13.7684 29.08C10.5963 32.0073 8.84507 35.7303 8.55566 40.1838C8.34845 43.3749 7.43856 45.774 6.63581 47.8911C6.43729 48.4144 6.24763 48.9197 6.07751 49.4116C7.20527 50.1102 7.95995 51.3503 7.95995 52.7649C7.95995 53.7002 7.51961 55.6938 6.93571 57.4027C5.97562 60.2123 4.94597 61.4653 3.59787 61.4653C1.78532 61.4653 1.04491 59.219 0.602264 57.2617C0.225418 55.5947 0 53.6662 0 52.7649C0.000328064 50.8026 1.44833 49.1745 3.33734 48.8677ZM72.1425 9.54702C71.3049 9.33143 70.4308 9.87015 69.9645 10.2298C68.3359 11.486 67.2055 13.8573 67.4445 15.5153C67.5709 16.3914 68.0686 16.9881 68.9667 17.3401C73.303 19.0403 76.1966 21.5029 77.537 22.8207C78.0871 22.3931 78.6165 21.8581 79.1012 21.2953C78.4423 20.2696 78.1706 19.2302 78.2951 18.1939C78.386 17.4369 78.6769 16.8214 78.9971 16.349C76.4419 13.5514 73.0172 10.3556 72.1425 9.54702ZM3.70287 58.0459C4.40473 56.5957 5.18747 53.7141 5.18747 52.7644C5.18747 52.1035 4.64606 51.5654 3.9803 51.5654C3.31454 51.5654 2.77313 52.1033 2.77313 52.7644C2.7733 54.4032 3.26778 56.774 3.70287 58.0459Z" fill="white"/>
<path d="M11.077 57.3957C11.4374 54.7477 11.9452 52.6831 12.3532 51.0244L12.3676 50.966C12.5493 50.2272 13.2993 49.7753 14.0434 49.9549C14.7872 50.1355 15.243 50.8807 15.0612 51.6193L15.0468 51.6778C14.6338 53.357 14.1658 55.2602 13.825 57.7651C13.1335 62.8482 16.8641 67.7838 18.0877 69.2459H24.8235C24.0994 68.0844 22.5634 67.238 20.7128 66.317C19.2262 65.5774 17.9425 64.9384 17.4075 63.876C16.6913 62.4534 15.609 58.5913 21.0106 53.47C24.7254 49.9479 26.4018 43.6519 26.4181 43.5897C26.5521 43.0731 26.9741 42.6802 27.5015 42.5805C28.0292 42.4808 28.5671 42.6924 28.8824 43.1241C28.9148 43.1684 28.9504 43.2123 28.9866 43.2559C29.529 43.8952 30.9816 44.9837 34.8635 46.154C34.8812 46.1594 34.8988 46.1646 34.9168 46.17C34.9746 46.1873 35.0346 46.2047 35.0932 46.222C38.9611 47.3531 43.9788 48.2322 48.5673 48.812C48.575 48.8118 48.5827 48.8108 48.5905 48.8108C48.7165 48.8108 48.8381 48.8291 48.9541 48.8604C50.4267 49.0422 51.8491 49.1925 53.1698 49.3098L52.7644 46.4105C52.6591 45.6572 53.1886 44.9617 53.947 44.8573C54.7056 44.7518 55.4057 45.2785 55.511 46.0318L58.7573 69.2463H66.2346C65.0438 67.2726 62.4461 66.5828 62.4182 66.5756C61.7946 66.4207 61.3603 65.8606 61.3682 65.2226L61.5859 47.7974C60.8071 46.7415 58.8863 43.9662 58.1071 41.2989C58.0303 41.434 57.9798 41.5801 57.9673 41.7366C57.9235 42.296 57.5424 42.7729 57.0038 42.9421C56.4655 43.1116 55.8772 42.9396 55.5171 42.5076C55.4208 42.3921 53.1402 39.641 51.389 36.225C51.0416 35.5473 51.313 34.7182 51.9953 34.3729C52.6775 34.0281 53.5124 34.2974 53.8601 34.9752C54.6707 36.5565 55.6232 38.0056 56.371 39.0568C57.1145 38.289 58.0581 37.7986 58.7315 37.5743C59.1766 37.426 59.6669 37.5114 60.0349 37.8012C60.4025 38.0911 60.5976 38.5461 60.553 39.0104C60.3956 40.6495 62.0238 43.6012 63.4111 45.5967C68.1669 42.9638 69.6953 37.8056 69.7101 37.7538C69.8495 37.258 70.2556 36.8806 70.7632 36.7758C71.2705 36.6713 71.7946 36.8563 72.1216 37.2555L72.4212 37.6218C72.6957 36.3339 72.8333 35.0196 72.831 33.6927C72.8299 32.9321 73.4495 32.3148 74.2152 32.3135C74.216 32.3135 74.2167 32.3135 74.2174 32.3135C74.9819 32.3135 75.6025 32.9288 75.6038 33.6883C75.6078 36.1909 75.1789 38.6533 74.3292 41.0077C74.1603 41.4755 73.7508 41.8167 73.2574 41.9003C72.7644 41.9833 72.2635 41.797 71.948 41.4111L71.4508 40.803C70.3663 42.9999 68.2107 46.2481 64.3538 48.2195L64.1531 64.2612C64.6732 64.4691 65.3303 64.7765 66.0015 65.2075C68.0301 66.5111 69.2509 68.3217 69.5317 70.4433C69.5839 70.8363 69.4628 71.2328 69.1995 71.5309C68.9362 71.8291 68.5564 72 68.1571 72H57.5501H51.7701C51.1227 72 50.5614 71.5551 50.418 70.9281L47.2392 57.0334C47.2162 56.9332 47.2046 56.831 47.2046 56.7282V51.3972C45.6745 51.1943 44.0067 50.9486 42.3091 50.6555C40.6685 50.3721 39.1562 50.0737 37.7682 49.7595C38.1447 52.1492 38.2046 55.8152 35.6777 57.8937C34.1472 59.1523 33.2691 60.0272 32.7868 60.5623L35.6518 64.3106C37.2117 64.898 42.2153 66.9988 43.3667 70.1528C43.5209 70.5751 43.458 71.0451 43.1985 71.4127C42.9389 71.7803 42.5152 71.9992 42.0632 71.9992H32.9783C32.5602 71.9992 32.1647 71.8118 31.9012 71.4895L23.5601 61.2722C23.484 61.1786 23.4203 61.0761 23.3709 60.9661L21.5528 56.9205C19.7645 59.0803 19.1401 61.142 19.8817 62.6318C20.0912 62.9263 21.2117 63.4842 21.9548 63.8538C24.3173 65.0295 27.8877 66.806 28.0393 70.5673C28.0544 70.9419 27.9151 71.3061 27.6538 71.5765C27.3924 71.8468 27.0313 71.9995 26.654 71.9995H17.4555C17.0729 71.9995 16.7072 71.8426 16.4452 71.5656C16.3799 71.4965 14.8315 69.8482 13.3989 67.3182C11.4622 63.8977 10.6594 60.4665 11.077 57.3957ZM52.8767 69.2463H55.9578L53.561 52.1048C52.79 52.0365 51.533 51.9167 49.9774 51.7396V56.5742L52.8767 69.2463ZM25.8293 59.6791L33.6393 69.2459H39.134C38.6436 68.8772 38.0561 68.5045 37.3825 68.1374C35.8201 67.2853 34.351 66.7712 34.337 66.7661C34.0793 66.6771 33.854 66.5142 33.6891 66.2984L29.9382 61.3909C29.6189 60.9733 29.5663 60.4116 29.8023 59.9425C29.9618 59.6255 30.7293 58.3887 33.909 55.7732C35.6721 54.3229 35.2597 50.8692 34.7997 49.0108C33.0572 48.518 31.5773 47.9907 30.3541 47.4265C30.3531 47.4261 30.3521 47.4256 30.3511 47.4251C30.2437 47.3755 30.1382 47.3255 30.0348 47.2757C29.9913 47.2548 29.949 47.2336 29.9064 47.2124C29.8471 47.1833 29.7884 47.1539 29.7305 47.1244C29.6701 47.0936 29.6105 47.0627 29.5515 47.0319C29.5147 47.0126 29.4783 46.9931 29.4421 46.9739C29.3715 46.9361 29.3016 46.8981 29.2332 46.86C29.2139 46.8492 29.1945 46.8383 29.1753 46.8272C28.912 46.6791 28.6631 46.5287 28.4319 46.3755C28.4236 46.3983 28.414 46.4234 28.4055 46.4464C28.3612 46.5679 28.3154 46.6916 28.2667 46.8204C28.2449 46.878 28.2206 46.939 28.198 46.998C28.1597 47.0974 28.1215 47.1963 28.0805 47.2991C28.0531 47.3677 28.0237 47.4391 27.9954 47.5092C27.9558 47.6071 27.9163 47.7045 27.8743 47.8049C27.8431 47.88 27.81 47.9566 27.7775 48.0332C27.735 48.1329 27.6923 48.2325 27.6477 48.3344C27.6128 48.4139 27.5767 48.4942 27.5404 48.575C27.4948 48.6769 27.4484 48.7791 27.4005 48.8827C27.3621 48.9658 27.3229 49.0492 27.283 49.1333C27.2336 49.2376 27.1834 49.3424 27.1317 49.448C27.0904 49.533 27.0486 49.6178 27.0057 49.7035C26.9521 49.8109 26.897 49.9187 26.841 50.0269C26.7969 50.1125 26.7529 50.1979 26.7073 50.2838C26.6487 50.3949 26.5879 50.5062 26.5268 50.6175C26.4807 50.7017 26.4351 50.7857 26.3879 50.8704C26.3226 50.9866 26.255 51.1029 26.1871 51.2193C26.1403 51.2998 26.0947 51.3798 26.0466 51.4601C25.9705 51.5875 25.8911 51.7146 25.812 51.8419C25.7692 51.911 25.7277 51.9799 25.6837 52.0489C25.5671 52.2319 25.447 52.4142 25.3236 52.5957C25.3151 52.6083 25.3074 52.6208 25.2988 52.6334C25.1673 52.8262 25.0314 53.0175 24.8921 53.2071C24.8464 53.2695 24.7981 53.3305 24.7515 53.3924C24.6562 53.5194 24.5606 53.646 24.4616 53.7708C24.4036 53.8438 24.3433 53.9153 24.2841 53.9877C24.1931 54.0991 24.1018 54.2104 24.0077 54.3196C23.9424 54.3954 23.8751 54.4697 23.8085 54.5443C23.7447 54.6157 23.6828 54.689 23.6177 54.7596L25.8293 59.6791Z" fill="white"/>
</svg>
