<svg width="41" height="41" viewBox="0 0 41 41" fill="none" xmlns="http://www.w3.org/2000/svg">
<path d="M40.9804 32.357C41.0673 33.023 40.8645 33.602 40.3729 34.0942L34.6002 39.8271C34.3397 40.1166 33.9997 40.3629 33.5802 40.5654C33.1606 40.7681 32.7483 40.8984 32.3435 40.9563C32.3145 40.9563 32.2274 40.9638 32.0826 40.9782C31.9382 40.9926 31.7502 41 31.5187 41C30.9687 41 30.0789 40.9059 28.8491 40.7177C27.6193 40.5293 26.1147 40.066 24.3353 39.3278C22.5555 38.5894 20.5373 37.4817 18.2803 36.0053C16.0234 34.5287 13.6217 32.5017 11.0753 29.9248C9.04978 27.9268 7.3715 26.0159 6.04044 24.1918C4.70939 22.3675 3.63876 20.681 2.82856 19.1319C2.01828 17.5827 1.41063 16.1785 1.00552 14.919C0.600421 13.6594 0.325529 12.5736 0.18085 11.6615C0.0361699 10.7494 -0.0217019 10.0328 0.00723396 9.51163C0.0361699 8.99045 0.0506379 8.70091 0.0506379 8.64299C0.10851 8.23763 0.238722 7.82502 0.441273 7.40518C0.643825 6.98533 0.889779 6.64512 1.17914 6.38452L6.95185 0.608049C7.35696 0.202683 7.81994 0 8.34077 0C8.71695 0 9.04971 0.10858 9.33907 0.32574C9.62843 0.542901 9.87438 0.810733 10.0769 1.12924L14.7212 9.94596C14.9815 10.4092 15.054 10.9159 14.9381 11.4661C14.8224 12.0162 14.5764 12.4795 14.2003 12.8559L12.0735 14.9841C12.0156 15.042 11.965 15.1361 11.9216 15.2663C11.8782 15.3966 11.8565 15.5053 11.8565 15.5922C11.9722 16.2002 12.2327 16.8951 12.6378 17.6769C12.9849 18.3718 13.5203 19.2188 14.2438 20.2177C14.9671 21.2166 15.9943 22.3674 17.3254 23.6704C18.6275 25.0025 19.7849 26.0375 20.7977 26.776C21.8102 27.5141 22.6569 28.0572 23.3369 28.4046C24.0169 28.752 24.5377 28.9619 24.8993 29.0341L25.4418 29.1428C25.4996 29.1428 25.5939 29.121 25.724 29.0777C25.8542 29.0341 25.9482 28.9836 26.0062 28.9256L28.4801 26.4065C29.0013 25.9433 29.6086 25.7117 30.3031 25.7117C30.7952 25.7117 31.1857 25.7985 31.4749 25.9722H31.5183L39.8952 30.9236C40.503 31.3002 40.8647 31.7778 40.9804 32.357Z" fill="white"/>
</svg>
