<svg width="337" height="520" viewBox="0 0 337 520" fill="none" xmlns="http://www.w3.org/2000/svg">
<circle cx="15" cy="260" r="258.5" stroke="url(#paint0_linear)" stroke-width="3"/>
<line x1="105" y1="31.5" x2="335" y2="31.5" stroke="white"/>
<line x1="230" y1="121.5" x2="335" y2="121.5" stroke="white"/>
<line x1="257" y1="213.5" x2="335" y2="213.5" stroke="white"/>
<line x1="107" y1="489.5" x2="337" y2="489.5" stroke="white"/>
<line x1="226" y1="397.5" x2="335" y2="397.5" stroke="white"/>
<line x1="257" y1="305.5" x2="335" y2="305.5" stroke="white"/>
<circle cx="128" cy="30" r="23.5" fill="#E0E5E9" stroke="#FB8774" stroke-width="3"/>
<path d="M133.924 37.125V40H123.174V37.125H126.674V26.375L122.849 28.825L121.399 26.175L127.349 22.375H130.549V37.125H133.924Z" fill="#7A7A7A"/>
<circle cx="230" cy="122" r="23.5" fill="#E0E5E9" stroke="#F98D6B" stroke-width="3"/>
<path d="M236.082 128.95V132H223.157V128.95C224.457 127.9 225.449 127.092 226.132 126.525C226.816 125.958 227.566 125.3 228.382 124.55C229.216 123.783 229.824 123.167 230.207 122.7C230.591 122.217 230.916 121.708 231.182 121.175C231.449 120.625 231.582 120.108 231.582 119.625C231.582 118.858 231.316 118.25 230.782 117.8C230.249 117.35 229.541 117.125 228.657 117.125C228.257 117.125 227.866 117.167 227.482 117.25C227.099 117.317 226.807 117.383 226.607 117.45L226.332 117.575L226.082 119.7H223.457L223.332 115.075C225.216 114.408 227.049 114.075 228.832 114.075C230.999 114.075 232.674 114.458 233.857 115.225C235.057 115.975 235.657 117.233 235.657 119C235.657 119.85 235.507 120.667 235.207 121.45C234.924 122.233 234.441 123.05 233.757 123.9C233.074 124.733 232.349 125.517 231.582 126.25C230.832 126.967 229.832 127.867 228.582 128.95H236.082Z" fill="#7A7A7A"/>
<circle cx="266" cy="214" r="23.5" fill="#E0E5E9" stroke="#F39A5A" stroke-width="3"/>
<path d="M271.278 210.575C271.278 211.642 271.011 212.55 270.478 213.3C269.944 214.033 269.169 214.533 268.153 214.8C269.203 215.033 270.044 215.517 270.678 216.25C271.328 216.967 271.653 217.8 271.653 218.75C271.653 219.733 271.444 220.592 271.028 221.325C270.628 222.058 270.078 222.642 269.378 223.075C268.694 223.492 267.936 223.8 267.103 224C266.286 224.2 265.411 224.3 264.478 224.3C263.528 224.3 262.594 224.192 261.678 223.975C260.761 223.742 260.086 223.517 259.653 223.3L258.978 222.95L260.028 220.2C261.528 220.9 263.011 221.25 264.478 221.25C265.494 221.25 266.278 221.033 266.828 220.6C267.378 220.167 267.653 219.533 267.653 218.7C267.653 217.933 267.344 217.333 266.728 216.9C266.111 216.467 265.236 216.25 264.103 216.25H262.153V213.625H264.228C266.394 213.625 267.478 212.817 267.478 211.2C267.478 210.567 267.236 210.067 266.753 209.7C266.269 209.317 265.594 209.125 264.728 209.125C264.361 209.125 263.969 209.158 263.553 209.225C263.153 209.275 262.836 209.333 262.603 209.4L262.278 209.5L262.028 211.5H259.403L259.278 207.125C261.328 206.425 263.186 206.075 264.853 206.075C269.136 206.075 271.278 207.575 271.278 210.575Z" fill="#7A7A7A"/>
<circle cx="268" cy="306" r="23.5" fill="#E0E5E9" stroke="#E9B238" stroke-width="3"/>
<path d="M274.788 309.375V312.45H272.288V316H268.438V312.45H260.663L260.288 309.5C264.938 302.65 267.546 298.817 268.113 298L272.288 298.375V309.375H274.788ZM264.038 309.375H268.488V302.775L264.038 309.375Z" fill="#7A7A7A"/>
<circle cx="230" cy="398" r="23.5" fill="#E0E5E9" stroke="#E3BF27" stroke-width="3"/>
<path d="M223.18 406.95L224.255 404.2C225.755 404.9 227.23 405.25 228.68 405.25C229.514 405.25 230.197 405.033 230.73 404.6C231.264 404.15 231.53 403.533 231.53 402.75C231.53 401.817 231.139 401.142 230.355 400.725C229.589 400.292 228.43 400.075 226.88 400.075H224.18L224.605 390.375H234.855L234.78 393.45H228.155L227.98 397.2C230.397 397.2 232.28 397.658 233.63 398.575C234.997 399.475 235.68 400.742 235.68 402.375C235.68 404.208 235.03 405.658 233.73 406.725C232.447 407.775 230.897 408.3 229.08 408.3C228.08 408.3 227.089 408.192 226.105 407.975C225.122 407.742 224.389 407.517 223.905 407.3L223.18 406.95Z" fill="#7A7A7A"/>
<circle cx="128" cy="490" r="23.5" fill="#E0E5E9" stroke="#E0C71B" stroke-width="3"/>
<path d="M132.785 485.25C132.285 485.167 131.635 485.125 130.835 485.125C129.835 485.125 128.96 485.3 128.21 485.65C127.46 485.983 126.902 486.392 126.535 486.875C126.185 487.358 125.902 487.842 125.685 488.325C125.468 488.808 125.343 489.217 125.31 489.55L125.26 490.075C126.443 489.358 127.743 489 129.16 489C130.76 489 132.077 489.458 133.11 490.375C134.143 491.275 134.66 492.567 134.66 494.25C134.66 496 134.035 497.45 132.785 498.6C131.535 499.75 129.968 500.325 128.085 500.325C125.935 500.325 124.268 499.608 123.085 498.175C121.918 496.742 121.335 494.892 121.335 492.625C121.335 489.475 122.127 486.933 123.71 485C125.31 483.05 127.643 482.075 130.71 482.075C131.143 482.075 131.543 482.1 131.91 482.15C132.293 482.183 132.568 482.217 132.735 482.25L132.96 482.325L132.785 485.25ZM125.16 492.825V493.425C125.16 494.725 125.427 495.692 125.96 496.325C126.51 496.942 127.21 497.25 128.06 497.25C128.86 497.25 129.502 497.017 129.985 496.55C130.468 496.067 130.71 495.425 130.71 494.625C130.71 492.842 129.81 491.95 128.01 491.95C127.543 491.95 127.068 492.025 126.585 492.175C126.118 492.325 125.768 492.467 125.535 492.6L125.16 492.825Z" fill="#7A7A7A"/>
<defs>
<linearGradient id="paint0_linear" x1="15" y1="0" x2="15" y2="520" gradientUnits="userSpaceOnUse">
<stop stop-color="#FF7F7F"/>
<stop offset="1" stop-color="#DDCD13"/>
</linearGradient>
</defs>
</svg>
